<?xml version="1.0" encoding="utf-8"?>
<svg version="1.1" xmlns:xlink="http://www.w3.org/1999/xlink" width="205px" height="156px" xmlns="http://www.w3.org/2000/svg">
  <g>
    <path d="M 177.60775862069 57.6136363636364  C 181.731321839081 53.4772727272727  183.793103448276 48.4545454545454  183.793103448276 42.5454545454546  C 183.793103448276 36.6363636363636  181.731321839081 31.6136363636364  177.60775862069 27.4772727272727  C 173.484195402299 23.3409090909091  168.477011494253 21.2727272727273  162.586206896552 21.2727272727273  L 155 21.2727272727273  L 155 63.8181818181818  L 162.586206896552 63.8181818181818  C 168.477011494253 63.8181818181818  173.484195402299 61.75  177.60775862069 57.6136363636364  Z M 8.28394396551732 147.690340909091  C 2.76131465517244 142.150568181818  0 135.465909090909  0 127  L 197.931034482759 127  C 197.931034482759 135.465909090909  195.169719827586 142.150568181818  189.647090517241 147.690340909091  C 184.124461206897 153.230113636364  177.460488505747 156  169.655172413793 156  L 28.2758620689656 156  C 20.4705459770114 156  13.806573275862 153.230113636364  8.28394396551732 147.690340909091  Z M 192.574084051724 12.4644886363636  C 200.858028017241 20.7741477272727  205 30.8011363636364  205 42.5454545454546  C 205 54.2897727272727  200.858028017241 64.3167613636364  192.574084051724 72.6264204545454  C 184.290140086207 80.9360795454546  174.294181034483 85.0909090909091  162.586206896552 85.0909090909091  L 155.51724137931 85.0909090909091  L 155.51724137931 88.6363636363636  C 155.51724137931 95.4318181818182  153.087284482759 101.267045454545  148.227370689655 106.142045454545  C 143.367456896552 111.017045454545  137.550287356322 113.454545454545  130.775862068966 113  L 101.000242041769 113  L 53.0172413793102 113.454545454545  C 46.242816091954 113.454545454545  40.4256465517242 111.017045454545  35.5657327586207 106.142045454545  C 30.7058189655173 101.267045454545  28.2758620689656 95.4318181818182  29 88.6363636363636  L 29 7.09090909090912  C 28.2758620689656 5.17045454545456  28.9753951149426 3.50852272727269  30.3744612068965 2.10511363636363  C 31.7735272988506 0.701704545454504  33.430316091954 0  35.3448275862069 0  L 162.586206896552 0  C 174.294181034483 0  184.290140086207 4.15482954545456  192.574084051724 12.4644886363636  Z " fill-rule="nonzero" fill="#ffffff" stroke="none" />
  </g>
</svg>