<?xml version="1.0" encoding="utf-8"?>
<svg version="1.1" xmlns:xlink="http://www.w3.org/1999/xlink" width="320px" height="98px" xmlns="http://www.w3.org/2000/svg">
  <g transform="matrix(1 0 0 1 -767 -103 )">
    <path d="M 768 177.209230769231  C 768 177.209230769231  768 109  768 109  C 768 106.238576250846  770.238576250846 104  773 104  C 773 104  1081 104  1081 104  C 1083.76142374915 104  1086 106.238576250846  1086 109  C 1086 109  1086 177.209230769231  1086 177.209230769231  C 1086 179.970654518385  1083.76142374915 182.209230769231  1081 182.209230769231  C 1081 182.209230769231  833.827459143429 182.209230769231  833.827459143429 182.209230769231  C 833.827459143429 182.209230769231  822.672200645548 199.27145684734  822.672200645548 199.27145684734  C 822.672200645548 199.27145684734  809.598843401425 182.209230769231  809.598843401425 182.209230769231  C 809.598843401425 182.209230769231  773 182.209230769231  773 182.209230769231  C 770.238576250846 182.209230769231  768 179.970654518385  768 177.209230769231  Z " fill-rule="nonzero" fill="#000000" stroke="none" />
  </g>
</svg>