<?xml version="1.0" encoding="utf-8"?>
<svg version="1.1" xmlns:xlink="http://www.w3.org/1999/xlink" width="320px" height="139px" xmlns="http://www.w3.org/2000/svg">
  <g transform="matrix(1 0 0 1 -767 -107 )">
    <path d="M 768 224.392520710059  C 768 224.392520710059  768 113  768 113  C 768 110.238576250846  770.238576250846 108  773 108  C 773 108  1081 108  1081 108  C 1083.76142374915 108  1086 110.238576250846  1086 113  C 1086 113  1086 224.392520710059  1086 224.392520710059  C 1086 227.153944459213  1083.76142374915 229.392520710059  1081 229.392520710059  C 1081 229.392520710059  833.839641950515 229.392520710059  833.839641950515 229.392520710059  C 833.839641950515 229.392520710059  823.612913036358 244.405667912531  823.612913036358 244.405667912531  C 823.612913036358 244.405667912531  809.538503936677 229.392520710059  809.538503936677 229.392520710059  C 809.538503936677 229.392520710059  773 229.392520710059  773 229.392520710059  C 770.238576250846 229.392520710059  768 227.153944459213  768 224.392520710059  Z " fill-rule="nonzero" fill="#000000" stroke="none" />
  </g>
</svg>