<?xml version="1.0" encoding="utf-8"?>
<svg version="1.1" xmlns:xlink="http://www.w3.org/1999/xlink" width="320px" height="114px" xmlns="http://www.w3.org/2000/svg">
  <g transform="matrix(1 0 0 1 -767 -106 )">
    <path d="M 768 199.852307692308  C 768 199.852307692308  768 112  768 112  C 768 109.238576250846  770.238576250846 107  773 107  C 773 107  1081 107  1081 107  C 1083.76142374915 107  1086 109.238576250846  1086 112  C 1086 112  1086 199.852307692308  1086 199.852307692308  C 1086 202.613731441462  1083.76142374915 204.852307692308  1081 204.852307692308  C 1081 204.852307692308  833.874359470355 204.852307692308  833.874359470355 204.852307692308  C 833.874359470355 204.852307692308  823.61870618506 218.258586710598  823.61870618506 218.258586710598  C 823.61870618506 218.258586710598  809.504490277575 204.852307692308  809.504490277575 204.852307692308  C 809.504490277575 204.852307692308  773 204.852307692308  773 204.852307692308  C 770.238576250846 204.852307692308  768 202.613731441462  768 199.852307692308  Z " fill-rule="nonzero" fill="#000000" stroke="none" />
  </g>
</svg>