<?xml version="1.0" encoding="utf-8"?>
<svg version="1.1" xmlns:xlink="http://www.w3.org/1999/xlink" width="201px" height="72px" xmlns="http://www.w3.org/2000/svg">
  <g transform="matrix(1 0 0 1 -757 -241 )">
    <path d="M 929.413351882126 242.5  C 929.413351882126 242.5  932.416844274796 243.037938936001  932.416844274796 243.037938936001  C 932.416844274796 243.037938936001  956.287978227394 277  956.287978227394 277  C 956.287978227394 277  932.416844274796 310.962061063999  932.416844274796 310.962061063999  C 932.416844274796 310.962061063999  929.413351882126 311.5  929.413351882126 311.5  C 929.413351882126 311.5  758.5 311.5  758.5 311.5  C 758.5 311.5  758.5 242.5  758.5 242.5  C 758.5 242.5  929.413351882126 242.5  929.413351882126 242.5  Z " fill-rule="nonzero" fill="#a1a1a1" stroke="none" />
    <path d="M 929.342234588084 242  C 929.342234588084 242  932.677896183198 242.597431927483  932.677896183198 242.597431927483  C 932.677896183198 242.597431927483  956.858652151596 277  956.858652151596 277  C 956.858652151596 277  932.677896183198 311.402568072517  932.677896183198 311.402568072517  C 932.677896183198 311.402568072517  929.342234588084 312  929.342234588084 312  C 929.342234588084 312  758 312  758 312  C 758 312  758 242  758 242  C 758 242  929.342234588084 242  929.342234588084 242  Z " stroke-width="2" stroke="#ffffff" fill="none" />
  </g>
</svg>