<?xml version="1.0" encoding="utf-8"?>
<svg version="1.1" xmlns:xlink="http://www.w3.org/1999/xlink" width="201px" height="72px" xmlns="http://www.w3.org/2000/svg">
  <g transform="matrix(1 0 0 1 -583 -241 )">
    <path d="M 755.413351882126 242.5  C 755.413351882126 242.5  758.416844274796 243.037938936001  758.416844274796 243.037938936001  C 758.416844274796 243.037938936001  782.287978227394 277  782.287978227394 277  C 782.287978227394 277  758.416844274796 310.962061063999  758.416844274796 310.962061063999  C 758.416844274796 310.962061063999  755.413351882126 311.5  755.413351882126 311.5  C 755.413351882126 311.5  584.5 311.5  584.5 311.5  C 584.5 311.5  584.5 242.5  584.5 242.5  C 584.5 242.5  755.413351882126 242.5  755.413351882126 242.5  Z " fill-rule="nonzero" fill="#f58f63" stroke="none" />
    <path d="M 755.342234588084 242  C 755.342234588084 242  758.677896183198 242.597431927483  758.677896183198 242.597431927483  C 758.677896183198 242.597431927483  782.858652151596 277  782.858652151596 277  C 782.858652151596 277  758.677896183198 311.402568072517  758.677896183198 311.402568072517  C 758.677896183198 311.402568072517  755.342234588084 312  755.342234588084 312  C 755.342234588084 312  584 312  584 312  C 584 312  584 242  584 242  C 584 242  755.342234588084 242  755.342234588084 242  Z " stroke-width="2" stroke="#ffffff" fill="none" />
  </g>
</svg>