<?xml version="1.0" encoding="utf-8"?>
<svg version="1.1" xmlns:xlink="http://www.w3.org/1999/xlink" width="320px" height="173px" xmlns="http://www.w3.org/2000/svg">
  <g transform="matrix(1 0 0 1 -860 -103 )">
    <path d="M 861 253.271257035647  C 861 253.271257035647  861 109  861 109  C 861 106.238576250846  863.238576250846 104  866 104  C 866 104  1174 104  1174 104  C 1176.76142374915 104  1179 106.238576250846  1179 109  C 1179 109  1179 253.271257035647  1179 253.271257035647  C 1179 256.032680784801  1176.76142374915 258.271257035647  1174 258.271257035647  C 1174 258.271257035647  926.845756831758 258.271257035647  926.845756831758 258.271257035647  C 926.845756831758 258.271257035647  915.673565210363 274.339301007021  915.673565210363 274.339301007021  C 915.673565210363 274.339301007021  902.580363264927 258.271257035647  902.580363264927 258.271257035647  C 902.580363264927 258.271257035647  866 258.271257035647  866 258.271257035647  C 863.238576250846 258.271257035647  861 256.032680784801  861 253.271257035647  Z " fill-rule="nonzero" fill="#000000" stroke="none" />
  </g>
</svg>